<svg width="145" height="38" viewBox="0 0 982 112" fill="none" xmlns="http://www.w3.org/2000/svg">
<path d="M19.6721 9.49597V93.448H59.5601L57.4001 109H0.664062V9.49597H19.6721Z" fill="black"/>
<path d="M100.38 30.664C111.612 30.664 120.348 34.264 126.588 41.464C132.924 48.568 136.092 58.36 136.092 70.84C136.092 78.808 134.652 85.864 131.772 92.008C128.892 98.056 124.764 102.76 119.388 106.12C114.012 109.48 107.628 111.16 100.236 111.16C89.0036 111.16 80.2196 107.608 73.8836 100.504C67.5476 93.304 64.3796 83.416 64.3796 70.84C64.3796 62.872 65.8196 55.864 68.6996 49.816C71.5796 43.768 75.7076 39.064 81.0836 35.704C86.5556 32.344 92.9876 30.664 100.38 30.664ZM100.38 44.632C89.3396 44.632 83.8196 53.368 83.8196 70.84C83.8196 79.864 85.1636 86.536 87.8516 90.856C90.6356 95.08 94.7636 97.192 100.236 97.192C105.708 97.192 109.788 95.032 112.476 90.712C115.26 86.392 116.652 79.768 116.652 70.84C116.652 61.912 115.26 55.336 112.476 51.112C109.788 46.792 105.756 44.632 100.38 44.632Z" fill="black"/>
<path d="M193.977 30.664C200.697 30.664 205.977 32.728 209.817 36.856C213.657 40.984 215.577 46.648 215.577 53.848V109H197.145V56.728C197.145 52.216 196.329 49.048 194.697 47.224C193.161 45.4 190.857 44.488 187.785 44.488C184.713 44.488 181.881 45.496 179.289 47.512C176.697 49.432 174.201 52.216 171.801 55.864V109H153.369V2.43997L171.801 0.567973V41.896C177.945 34.408 185.337 30.664 193.977 30.664Z" fill="black"/>
<path d="M274.625 30.808C277.409 30.808 279.953 31.144 282.257 31.816L279.089 49.672C276.785 49.096 274.529 48.808 272.321 48.808C267.809 48.808 264.257 50.44 261.665 53.704C259.073 56.872 257.009 61.768 255.473 68.392V109H237.041V32.824H253.025L254.753 47.8C256.577 42.328 259.217 38.152 262.673 35.272C266.129 32.296 270.113 30.808 274.625 30.808Z" fill="black"/>
<path d="M344.955 88.84C344.955 91.816 345.387 94.024 346.251 95.464C347.211 96.808 348.699 97.864 350.715 98.632L346.827 110.872C342.507 110.488 338.955 109.432 336.171 107.704C333.483 105.976 331.419 103.336 329.979 99.784C327.387 103.624 324.123 106.504 320.187 108.424C316.347 110.248 312.027 111.16 307.227 111.16C299.643 111.16 293.643 109 289.227 104.68C284.811 100.36 282.603 94.696 282.603 87.688C282.603 79.432 285.579 73.144 291.531 68.824C297.579 64.408 306.171 62.2 317.307 62.2H326.811V57.88C326.811 52.984 325.659 49.576 323.355 47.656C321.147 45.64 317.547 44.632 312.555 44.632C306.987 44.632 300.267 45.976 292.395 48.664L288.075 36.136C297.579 32.488 306.795 30.664 315.723 30.664C335.211 30.664 344.955 39.4 344.955 56.872V88.84ZM312.123 97.768C318.363 97.768 323.259 94.648 326.811 88.408V73H319.179C307.275 73 301.323 77.416 301.323 86.248C301.323 89.896 302.235 92.728 304.059 94.744C305.883 96.76 308.571 97.768 312.123 97.768Z" fill="black"/>
<path d="M407.868 30.664C414.684 30.664 419.964 32.728 423.708 36.856C427.548 40.888 429.468 46.552 429.468 53.848V109H411.036V56.728C411.036 52.216 410.22 49.048 408.588 47.224C407.052 45.4 404.748 44.488 401.676 44.488C398.508 44.488 395.628 45.496 393.036 47.512C390.54 49.432 388.092 52.264 385.692 56.008V109H367.26V32.824H383.244L384.684 42.76C390.924 34.696 398.652 30.664 407.868 30.664Z" fill="black"/>
<path d="M581.828 109H563.252L560.66 67.384C559.796 52.504 559.364 40.696 559.364 31.96V26.776L541.22 98.2H523.22L503.924 26.632C504.116 32.968 504.212 37.768 504.212 41.032C504.212 49.768 503.924 58.744 503.348 67.96L500.9 109H482.468L490.388 9.49597H514.868L532.58 79.192L549.284 9.49597H574.052L581.828 109Z" fill="black"/>
<path d="M662.068 69.112C662.068 70.072 661.924 72.568 661.636 76.6H613.828C614.404 83.992 616.324 89.272 619.588 92.44C622.852 95.608 627.172 97.192 632.548 97.192C635.908 97.192 639.076 96.664 642.052 95.608C645.028 94.456 648.196 92.728 651.556 90.424L659.188 100.936C650.74 107.752 641.332 111.16 630.964 111.16C619.348 111.16 610.372 107.608 604.036 100.504C597.796 93.4 594.676 83.704 594.676 71.416C594.676 63.64 596.02 56.68 598.708 50.536C601.396 44.296 605.284 39.448 610.372 35.992C615.46 32.44 621.508 30.664 628.516 30.664C639.172 30.664 647.428 34.072 653.284 40.888C659.14 47.608 662.068 57.016 662.068 69.112ZM643.78 63.784C643.78 50.44 638.836 43.768 628.948 43.768C624.436 43.768 620.884 45.448 618.292 48.808C615.796 52.072 614.308 57.352 613.828 64.648H643.78V63.784Z" fill="black"/>
<path d="M719.212 30.664C726.028 30.664 731.308 32.728 735.052 36.856C738.892 40.888 740.812 46.552 740.812 53.848V109H722.38V56.728C722.38 52.216 721.564 49.048 719.932 47.224C718.396 45.4 716.092 44.488 713.02 44.488C709.852 44.488 706.972 45.496 704.38 47.512C701.884 49.432 699.436 52.264 697.036 56.008V109H678.604V32.824H694.588L696.028 42.76C702.268 34.696 709.996 30.664 719.212 30.664Z" fill="black"/>
<path d="M826.356 2.29597V109H810.084L808.788 99.352C806.388 103 803.316 105.88 799.572 107.992C795.924 110.104 791.748 111.16 787.044 111.16C777.732 111.16 770.58 107.56 765.588 100.36C760.596 93.16 758.1 83.368 758.1 70.984C758.1 63.208 759.348 56.296 761.844 50.248C764.34 44.104 767.892 39.304 772.5 35.848C777.204 32.392 782.628 30.664 788.772 30.664C796.068 30.664 802.452 33.4 807.924 38.872V0.279968L826.356 2.29597ZM792.228 97.192C795.492 97.192 798.372 96.424 800.868 94.888C803.364 93.256 805.716 90.76 807.924 87.4V52.552C805.716 49.864 803.46 47.848 801.156 46.504C798.948 45.16 796.356 44.488 793.38 44.488C788.484 44.488 784.596 46.696 781.716 51.112C778.932 55.432 777.54 62.008 777.54 70.84C777.54 80.248 778.788 87.016 781.284 91.144C783.78 95.176 787.428 97.192 792.228 97.192Z" fill="black"/>
<path d="M910.975 69.112C910.975 70.072 910.831 72.568 910.543 76.6H862.735C863.311 83.992 865.231 89.272 868.495 92.44C871.759 95.608 876.079 97.192 881.455 97.192C884.815 97.192 887.983 96.664 890.959 95.608C893.935 94.456 897.103 92.728 900.463 90.424L908.095 100.936C899.647 107.752 890.239 111.16 879.871 111.16C868.255 111.16 859.279 107.608 852.943 100.504C846.703 93.4 843.583 83.704 843.583 71.416C843.583 63.64 844.927 56.68 847.615 50.536C850.303 44.296 854.191 39.448 859.279 35.992C864.367 32.44 870.415 30.664 877.423 30.664C888.079 30.664 896.335 34.072 902.191 40.888C908.047 47.608 910.975 57.016 910.975 69.112ZM892.687 63.784C892.687 50.44 887.743 43.768 877.855 43.768C873.343 43.768 869.791 45.448 867.199 48.808C864.703 52.072 863.215 57.352 862.735 64.648H892.687V63.784Z" fill="black"/>
<path d="M951.558 30.664C961.83 30.664 970.854 33.688 978.63 39.736L971.43 50.536C964.902 46.408 958.518 44.344 952.278 44.344C948.63 44.344 945.798 45.064 943.782 46.504C941.766 47.848 940.758 49.672 940.758 51.976C940.758 53.704 941.19 55.144 942.054 56.296C942.918 57.448 944.454 58.552 946.662 59.608C948.966 60.568 952.326 61.672 956.742 62.92C964.998 65.128 971.094 68.056 975.03 71.704C979.062 75.352 981.078 80.44 981.078 86.968C981.078 94.552 978.006 100.504 971.862 104.824C965.718 109.048 958.086 111.16 948.966 111.16C942.726 111.16 937.014 110.2 931.83 108.28C926.742 106.36 922.326 103.72 918.582 100.36L927.798 89.992C934.422 94.984 941.334 97.48 948.534 97.48C952.662 97.48 955.926 96.664 958.326 95.032C960.822 93.4 962.07 91.144 962.07 88.264C962.07 86.056 961.59 84.328 960.63 83.08C959.766 81.736 958.134 80.584 955.734 79.624C953.43 78.568 949.782 77.32 944.79 75.88C937.014 73.768 931.302 70.84 927.654 67.096C924.006 63.256 922.182 58.504 922.182 52.84C922.182 48.616 923.382 44.824 925.782 41.464C928.278 38.104 931.734 35.464 936.15 33.544C940.662 31.624 945.798 30.664 951.558 30.664Z" fill="black"/>
</svg>
